#!OML:ASF I:\Actors\actors\Patient Classification 2\Patient 1\Session 1\actor1.ASF
:FULLY-SPECIFIED
:DEGREES
832
root -0.764089 18.7007 5.64768 2.40522 -2.27882 -2.98042
lowerback 14.0164 -0.0168576 1.85556
upperback 2.21222 0.316915 1.05637
thorax -5.51659 0.127552 0.00466
lowerneck -0.227128 -0.990289 -0.498252
upperneck -5.70282 -1.22871 2.16943
head -1.71349 -0.646641 0.777082
rclavicle -6.30287e-015 2.92897e-015
rhumerus 11.9652 8.83407 -29.183
rradius 142.365
rwrist -51.2235
rhand 11.1591 -49.438
rfingers 7.12502
rthumb 36.2249 -75.699
lclavicle -6.30287e-015 2.92897e-015
lhumerus -45.1018 -1.19429 85.835
lradius 51.2157
lwrist -1.1764
lhand -8.8362 -24.4923
lfingers 7.12502
lthumb 17.1041 4.77483
rfemur 0 0 0
rtibia 0
rfoot 0 0
rtoes 0
lfemur -7.58788 -1.60903 -10.5646
ltibia 24.4667
lfoot -21.4169 11.7466
ltoes -56.6234
833
root -0.764845 18.7001 5.64618 2.38735 -2.31583 -2.96822
lowerback 14.0326 -0.0164346 1.84404
upperback 2.21816 0.315204 1.04289
thorax -5.51923 0.126808 -0.002732
lowerneck -0.260392 -0.9571 -0.548152
upperneck -5.74821 -1.18108 2.23588
head -1.72258 -0.62319 0.805857
rclavicle -1.22444e-014 9.60068e-015
rhumerus 11.9637 8.82737 -29.1749
rradius 142.414
rwrist -51.2705
rhand 11.0377 -49.4212
rfingers 7.12502
rthumb 36.1099 -75.7107
lclavicle -1.22444e-014 9.60068e-015
lhumerus -45.0601 -1.15913 85.8169
lradius 51.2236
lwrist -1.15818
lhand -8.85667 -24.5158
lfingers 7.12502
lthumb 17.0844 4.75302
rfemur 0 0 0
rtibia 0
rfoot 0 0
rtoes 0
lfemur -7.54613 -1.59201 -10.575
ltibia 24.4395
lfoot -21.4456 11.7542
ltoes -56.5868
834
root -0.765899 18.6993 5.64359 2.3515 -2.33672 -2.95003
lowerback 14.095 -0.0191922 1.81603
upperback 2.21247 0.308555 1.03334
thorax -5.55979 0.123684 0.0042172
lowerneck -0.275879 -0.946809 -0.548241
upperneck -5.73659 -1.16805 2.22481
head -1.71637 -0.616317 0.801974
rclavicle 1.75373e-015 -5.96354e-015
rhumerus 11.9156 8.851 -29.161
rradius 142.462
rwrist -51.4157
rhand 11.2173 -49.4355
rfingers 7.12502
rthumb 36.28 -75.6827
lclavicle 1.75373e-015 -5.96354e-015
lhumerus -45.0702 -1.11756 85.8007
lradius 51.2544
lwrist -1.14248
lhand -8.86467 -24.5804
lfingers 7.12502
lthumb 17.0767 4.68907
rfemur 0 0 0
rtibia 0
rfoot 0 0
rtoes 0
lfemur -7.49909 -1.57569 -10.5873
ltibia 24.4167
lfoot -21.4431 11.7367
ltoes -56.568
835
root -0.766127 18.699 5.64205 2.30191 -2.36054 -2.92717
lowerback 14.152 -0.0149298 1.7751
upperback 2.21709 0.309033 1.02734
thorax -5.58643 0.124473 0.0208911
lowerneck -0.227542 -0.930313 -0.566877
upperneck -5.73976 -1.14395 2.27006
head -1.72605 -0.60505 0.819481
rclavicle 7.86908e-015 1.19053e-014
rhumerus 11.8432 8.9706 -29.1416
rradius 142.481
rwrist -51.7378
rhand 11.4006 -49.6172
rfingers 7.12502
rthumb 36.4536 -75.821
lclavicle 7.86908e-015 1.19053e-014
lhumerus -45.0934 -1.0963 85.8073
lradius 51.2612
lwrist -1.10902
lhand -8.86636 -24.7161
lfingers 7.12502
lthumb 17.0751 4.55353
rfemur 0 0 0
rtibia 0
rfoot 0 0
rtoes 0
lfemur -7.44302 -1.53305 -10.6096
ltibia 24.4015
lfoot -21.3992 11.7281
ltoes -56.6292
836
root -0.765325 18.6991 5.64002 2.26083 -2.38674 -2.88026
lowerback 14.1684 -0.00880909 1.72258
upperback 2.25372 0.307135 0.999686
thorax -5.55685 0.12463 0.0217269
lowerneck -0.189589 -0.920628 -0.514973
upperneck -5.73205 -1.12911 2.29433
head -1.73058 -0.599357 0.818368
rclavicle -1.73005e-015 5.15598e-015
rhumerus 11.7349 9.18984 -29.1492
rradius 142.513
rwrist -52.2927
rhand 11.2031 -49.8597
rfingers 7.12502
rthumb 36.2665 -76.1103
lclavicle -1.73005e-015 5.15598e-015
lhumerus -45.054 -1.14339 85.8114
lradius 51.2571
lwrist -1.01638
lhand -8.8053 -24.8838
lfingers 7.12502
lthumb 17.1338 4.38071
rfemur 0 0 0
rtibia 0
rfoot 0 0
rtoes 0
lfemur -7.40313 -1.47647 -10.6647
ltibia 24.4011
lfoot -21.3823 11.6985
ltoes -56.6752
837
root -0.763525 18.6996 5.63518 2.28376 -2.40528 -2.83957
lowerback 14.139 -0.00745335 1.70782
upperback 2.29658 0.302564 0.958444
thorax -5.49518 0.122883 -0.0125512
lowerneck -0.219023 -0.94821 -0.403017
upperneck -5.64446 -1.16867 2.23699
head -1.69723 -0.619632 0.780879
rclavicle 2.50034e-015 -3.8763e-015
rhumerus 11.5518 9.41291 -29.1624
rradius 142.596
rwrist -53.0375
rhand 11.1207 -50.0794
rfingers 7.12502
rthumb 36.1885 -76.3494
lclavicle 2.50034e-015 -3.8763e-015
lhumerus -44.9769 -1.26501 85.8177
lradius 51.2853
lwrist -0.887001
lhand -8.71747 -24.954
lfingers 7.12502
lthumb 17.2184 4.30318
rfemur 0 0 0
rtibia 0
rfoot 0 0
rtoes 0
lfemur -7.44738 -1.46607 -10.7189
ltibia 24.4104
lfoot -21.3971 11.7141
ltoes -56.7086
838
root -0.761878 18.7005 5.62745 2.3514 -2.43411 -2.84439
lowerback 14.1281 0.00142716 1.7239
upperback 2.31921 0.315521 0.951467
thorax -5.46495 0.129143 -0.0313958
lowerneck -0.242776 -0.99477 -0.345523
upperneck -5.5218 -1.23561 2.16641
head -1.65322 -0.652034 0.748613
rclavicle -1.37441e-014 1.61513e-015
rhumerus 11.3648 9.65425 -29.135
rradius 142.691
rwrist -53.9788
rhand 11.2188 -50.4642
rfingers 7.12502
rthumb 36.2814 -76.7111
lclavicle -1.37441e-014 1.61513e-015
lhumerus -44.918 -1.32864 85.8454
lradius 51.2928
lwrist -0.845299
lhand -8.66012 -24.9657
lfingers 7.12502
lthumb 17.2736 4.28658
rfemur 0 0 0
rtibia 0
rfoot 0 0
rtoes 0
lfemur -7.5529 -1.48052 -10.7217
ltibia 24.4231
lfoot -21.3817 11.8029
ltoes -56.7297
839
root -0.761616 18.7003 5.61938 2.37155 -2.48164 -2.82976
lowerback 14.1804 0.00803622 1.66421
upperback 2.35151 0.317191 0.973265
thorax -5.45997 0.131321 0.0248956
lowerneck -0.191918 -1.00504 -0.351912
upperneck -5.43891 -1.2532 2.11228
head -1.63547 -0.659463 0.732705
rclavicle 5.37029e-015 -2.54693e-015
rhumerus 11.2801 10.1279 -29.1238
rradius 142.717
rwrist -54.8374
rhand 11.2496 -50.9624
rfingers 7.12502
rthumb 36.3106 -77.202
lclavicle 5.37029e-015 -2.54693e-015
lhumerus -44.905 -1.26638 85.8717
lradius 51.2973
lwrist -0.853982
lhand -8.56973 -24.9846
lfingers 7.12502
lthumb 17.3606 4.2601
rfemur 0 0 0
rtibia 0
rfoot 0 0
rtoes 0
lfemur -7.60716 -1.48559 -10.7405
ltibia 24.441
lfoot -21.3655 11.8801
ltoes -56.7121
840
root -0.761741 18.7 5.61126 2.3779 -2.54197 -2.79239
lowerback 14.2363 0.00239189 1.57949
upperback 2.39141 0.298361 0.988142
thorax -5.44926 0.12388 0.0918566
lowerneck -0.137424 -0.968235 -0.445063
upperneck -5.30098 -1.2056 2.15092
head -1.60102 -0.634078 0.759165
rclavicle -1.54369e-015 -8.88319e-015
rhumerus 11.2378 10.6642 -29.1368
rradius 142.684
rwrist -55.8701
rhand 11.3724 -51.361
rfingers 7.12502
rthumb 36.4269 -77.5715
lclavicle -1.54369e-015 -8.88319e-015
lhumerus -44.9316 -1.19247 85.8874
lradius 51.3397
lwrist -0.783491
lhand -8.40612 -24.9376
lfingers 7.12502
lthumb 17.518 4.29314
rfemur 0 0 0
rtibia 0
rfoot 0 0
rtoes 0
lfemur -7.64058 -1.46104 -10.7808
ltibia 24.4542
lfoot -21.3661 11.9107
ltoes -56.6916
841
root -0.760297 18.6997 5.60194 2.43015 -2.61321 -2.77961
lowerback 14.2742 -0.00117699 1.55424
upperback 2.41477 0.290852 0.999247
thorax -5.44558 0.120773 0.119176
lowerneck -0.118869 -0.929071 -0.497982
upperneck -5.09287 -1.15624 2.1728
head -1.53829 -0.607735 0.772654
rclavicle 5.21033e-015 -1.67725e-014
rhumerus 11.1451 10.9654 -29.1024
rradius 142.692
rwrist -57.5077
rhand 11.5887 -51.9967
rfingers 7.12502
rthumb 36.6315 -78.1556
lclavicle 5.21033e-015 -1.67725e-014
lhumerus -44.9574 -1.17802 85.9187
lradius 51.3879
lwrist -0.652516
lhand -8.22831 -24.8224
lfingers 7.12502
lthumb 17.6892 4.39295
rfemur 0 0 0
rtibia 0
rfoot 0 0
rtoes 0
lfemur -7.71575 -1.3706 -10.7929
ltibia 24.4518
lfoot -21.3146 11.8928
ltoes -56.729
